<svg xmlns="http://www.w3.org/2000/svg" viewBox="0 0 1200 630"><defs><style>.a0756755-c476-4e75-bfb1-d1923acae92b,.a3b84c28-64aa-4997-8bf2-d80e76edb482,.aa57756d-6915-471e-9c0d-ede19cfce06a,.adf4713a-a324-4516-b799-c1aeb1385952,.ba934752-c2c1-4ae1-8fc2-060c9a90d9ae,.e34e23ec-385a-47bf-8cee-f883e08d2073,.e61c9f6b-3e75-406b-92da-59abe5a76fff,.e84e588e-6d67-49b0-a021-b46ade80b6e5,.eae3ffba-8fd8-4f1d-ab41-96fdb4529256,.ff231365-0268-4386-b40c-db8e1fe56645{fill:none;}.eae3ffba-8fd8-4f1d-ab41-96fdb4529256{stroke:#c6c6c6;stroke-width:0.75px;}.e79940a4-cf94-468b-a219-22049ab6a7f2,.eae3ffba-8fd8-4f1d-ab41-96fdb4529256{stroke-miterlimit:10;}.b604b9d3-2595-4a62-8904-c0837beabdf2{font-size:126.45px;fill:#00f084;font-family:MADETOMMY-Bold, MADE TOMMY;font-weight:700;}.ba38663c-45cf-462b-b689-210316fecf38{letter-spacing:-0.07em;}.a21baee1-f9c7-4ded-8fd6-a184c11ed876{letter-spacing:-0.02em;}.a5193b3e-6ae1-4a8e-96f6-95c4db51eb9f{letter-spacing:0em;}.bee1bec8-c298-4f69-a6fb-4dc913b57cfc{letter-spacing:-0.02em;}.af601f06-f628-45a7-9c96-473f6cc78d3f{font-size:50.77px;font-family:MADETOMMY, MADE TOMMY;}.ac914a8d-c8da-4498-9d59-d3b7f0553bf5{letter-spacing:-0.02em;}.a2f3cae5-04a4-4dd4-b94e-10cc025251fd{letter-spacing:-0.02em;}.a18cee76-41e7-4806-a38d-04d6096ccb3a{letter-spacing:-0.01em;}.b90455bd-ff8d-44d8-9f3e-376389ba5843{fill:#bc4f04;}.a0756755-c476-4e75-bfb1-d1923acae92b,.a3b84c28-64aa-4997-8bf2-d80e76edb482,.a8a41664-4665-45ff-851e-23e5716bf629,.aa57756d-6915-471e-9c0d-ede19cfce06a,.adf4713a-a324-4516-b799-c1aeb1385952,.b90455bd-ff8d-44d8-9f3e-376389ba5843,.ba934752-c2c1-4ae1-8fc2-060c9a90d9ae,.e34e23ec-385a-47bf-8cee-f883e08d2073,.e61c9f6b-3e75-406b-92da-59abe5a76fff,.e79940a4-cf94-468b-a219-22049ab6a7f2,.e84e588e-6d67-49b0-a021-b46ade80b6e5,.ff231365-0268-4386-b40c-db8e1fe56645{stroke:#000;}.a0756755-c476-4e75-bfb1-d1923acae92b,.a3b84c28-64aa-4997-8bf2-d80e76edb482,.a8a41664-4665-45ff-851e-23e5716bf629,.aa57756d-6915-471e-9c0d-ede19cfce06a,.adf4713a-a324-4516-b799-c1aeb1385952,.b90455bd-ff8d-44d8-9f3e-376389ba5843,.ba934752-c2c1-4ae1-8fc2-060c9a90d9ae,.e34e23ec-385a-47bf-8cee-f883e08d2073,.e61c9f6b-3e75-406b-92da-59abe5a76fff,.e84e588e-6d67-49b0-a021-b46ade80b6e5,.ff231365-0268-4386-b40c-db8e1fe56645{stroke-linecap:round;stroke-linejoin:round;}.a8a41664-4665-45ff-851e-23e5716bf629,.b90455bd-ff8d-44d8-9f3e-376389ba5843{stroke-width:9.32px;}.a8a41664-4665-45ff-851e-23e5716bf629{fill:#fdc6ab;}.ef978c53-25ef-4df5-bdac-24d0cb0f4f4b{fill:#f8a48e;}.a3b84c28-64aa-4997-8bf2-d80e76edb482,.e34e23ec-385a-47bf-8cee-f883e08d2073{stroke-width:11.74px;}.a3b84c28-64aa-4997-8bf2-d80e76edb482,.ba934752-c2c1-4ae1-8fc2-060c9a90d9ae{opacity:0.16;}.ba934752-c2c1-4ae1-8fc2-060c9a90d9ae,.e61c9f6b-3e75-406b-92da-59abe5a76fff{stroke-width:11.74px;}.ff231365-0268-4386-b40c-db8e1fe56645{stroke-width:9.42px;}.e84e588e-6d67-49b0-a021-b46ade80b6e5{stroke-width:13.7px;}.adf4713a-a324-4516-b799-c1aeb1385952{stroke-width:13.97px;}.a0756755-c476-4e75-bfb1-d1923acae92b,.aa57756d-6915-471e-9c0d-ede19cfce06a{stroke-width:7.25px;}.aa57756d-6915-471e-9c0d-ede19cfce06a,.bd4be147-2efd-4b4f-b31a-2db5aa701ffe{opacity:0.17;}.afc14c47-8897-458a-8d04-322254feea39{fill:#e5ab8e;}.abe8d9c7-adb4-40fd-8e3d-0569d8b649a8{opacity:0.13;}.b0cbe9cc-58d4-41da-9f1e-cc7f302351c7{fill:#00b7ff;}.a5bb245f-a954-45c6-ba59-c7b2c65e804e,.e79940a4-cf94-468b-a219-22049ab6a7f2{fill:#b1b1b1;}.e79940a4-cf94-468b-a219-22049ab6a7f2{stroke-width:2.79px;}</style></defs><g id="b30eed83-e3b9-44fd-b97d-92bf355ea0be" data-name="artboard-5"><g id="eaa98abe-347a-40d9-a6cf-c6fe150758a7" data-name="guides copy"><line class="eae3ffba-8fd8-4f1d-ab41-96fdb4529256" x1="19.72" y1="-7983.85" x2="19.72" y2="8399.15"/><line class="eae3ffba-8fd8-4f1d-ab41-96fdb4529256" x1="91.89" y1="-7983.85" x2="91.89" y2="8399.15"/><line class="eae3ffba-8fd8-4f1d-ab41-96fdb4529256" x1="163.21" y1="-7983.85" x2="163.21" y2="8399.15"/><line class="eae3ffba-8fd8-4f1d-ab41-96fdb4529256" x1="235.21" y1="-7983.85" x2="235.21" y2="8399.15"/><line class="eae3ffba-8fd8-4f1d-ab41-96fdb4529256" x1="307.47" y1="-7983.85" x2="307.47" y2="8399.15"/><line class="eae3ffba-8fd8-4f1d-ab41-96fdb4529256" x1="380.74" y1="-7983.85" x2="380.74" y2="8399.15"/><line class="eae3ffba-8fd8-4f1d-ab41-96fdb4529256" x1="451.72" y1="-7983.85" x2="451.72" y2="8399.15"/><line class="eae3ffba-8fd8-4f1d-ab41-96fdb4529256" x1="523.21" y1="-7983.85" x2="523.21" y2="8399.15"/><line class="eae3ffba-8fd8-4f1d-ab41-96fdb4529256" x1="596.74" y1="-7983.85" x2="596.74" y2="8399.15"/><line class="eae3ffba-8fd8-4f1d-ab41-96fdb4529256" x1="667.72" y1="-7983.85" x2="667.72" y2="8399.15"/><line class="eae3ffba-8fd8-4f1d-ab41-96fdb4529256" x1="739.21" y1="-7983.85" x2="739.21" y2="8399.15"/><line class="eae3ffba-8fd8-4f1d-ab41-96fdb4529256" x1="811.21" y1="-7983.85" x2="811.21" y2="8399.15"/><line class="eae3ffba-8fd8-4f1d-ab41-96fdb4529256" x1="883.21" y1="-7983.85" x2="883.21" y2="8399.15"/><line class="eae3ffba-8fd8-4f1d-ab41-96fdb4529256" x1="955.98" y1="-7983.85" x2="955.98" y2="8399.15"/><line class="eae3ffba-8fd8-4f1d-ab41-96fdb4529256" x1="1027.98" y1="-7983.85" x2="1027.98" y2="8399.15"/><line class="eae3ffba-8fd8-4f1d-ab41-96fdb4529256" x1="1099.98" y1="-7983.85" x2="1099.98" y2="8399.15"/><line class="eae3ffba-8fd8-4f1d-ab41-96fdb4529256" x1="1171.98" y1="-7983.85" x2="1171.98" y2="8399.15"/><line class="eae3ffba-8fd8-4f1d-ab41-96fdb4529256" x1="-9875.43" y1="27.04" x2="6507.57" y2="27.04"/><line class="eae3ffba-8fd8-4f1d-ab41-96fdb4529256" x1="-9875.43" y1="99.55" x2="6507.57" y2="99.55"/><line class="eae3ffba-8fd8-4f1d-ab41-96fdb4529256" x1="-9875.43" y1="171.55" x2="6507.57" y2="171.55"/><line class="eae3ffba-8fd8-4f1d-ab41-96fdb4529256" x1="-9875.43" y1="243.04" x2="6507.57" y2="243.04"/><line class="eae3ffba-8fd8-4f1d-ab41-96fdb4529256" x1="-9875.43" y1="315.04" x2="6507.57" y2="315.04"/><line class="eae3ffba-8fd8-4f1d-ab41-96fdb4529256" x1="-9875.43" y1="386.53" x2="6507.57" y2="386.53"/><line class="eae3ffba-8fd8-4f1d-ab41-96fdb4529256" x1="-9875.43" y1="458.53" x2="6507.57" y2="458.53"/><line class="eae3ffba-8fd8-4f1d-ab41-96fdb4529256" x1="-9875.43" y1="531.3" x2="6507.57" y2="531.3"/><line class="eae3ffba-8fd8-4f1d-ab41-96fdb4529256" x1="-9875.43" y1="603.55" x2="6507.57" y2="603.55"/></g><text class="b604b9d3-2595-4a62-8904-c0837beabdf2" transform="translate(71.1 279.82)"><tspan class="ba38663c-45cf-462b-b689-210316fecf38">V</tspan><tspan x="82.82" y="0">enk</tspan><tspan class="a21baee1-f9c7-4ded-8fd6-a184c11ed876" x="302.34" y="0">a</tspan><tspan class="a5193b3e-6ae1-4a8e-96f6-95c4db51eb9f" x="369.86" y="0">t</tspan><tspan class="bee1bec8-c298-4f69-a6fb-4dc913b57cfc" x="421.7" y="0">r</tspan><tspan x="470.01" y="0">aj</tspan></text><text class="af601f06-f628-45a7-9c96-473f6cc78d3f" transform="translate(98.41 347.11)">G<tspan class="ac914a8d-c8da-4498-9d59-d3b7f0553bf5" x="39.71" y="0">r</tspan><tspan x="56.97" y="0">aphic designer &amp;</tspan><tspan class="a2f3cae5-04a4-4dd4-b94e-10cc025251fd" x="0" y="60.93">Fr</tspan><tspan x="42.7" y="60.93">o</tspan><tspan class="a18cee76-41e7-4806-a38d-04d6096ccb3a" x="73.27" y="60.93">nt</tspan><tspan x="119.93" y="60.93">end d</tspan><tspan class="ac914a8d-c8da-4498-9d59-d3b7f0553bf5" x="255.54" y="60.93">ev</tspan><tspan x="309.92" y="60.93">eloper</tspan></text><g id="f9dc930e-9dae-4eb8-8630-ee6c992a9491" data-name="Head copy 2"><g id="a6a0d4b3-59e4-4803-8696-d207dd61c4ed" data-name="Layer 11 copy 2"><path class="b90455bd-ff8d-44d8-9f3e-376389ba5843" d="M822.57,202.54c-4.19,17.47-10,8.71-10,8.71s-7.44-2-11.74-22.18a130.11,130.11,0,0,1-2.82-20c-.5-11-1.29-31.71,4.94-33.91,6.87-1.59,14.84,16,17.52,28.1A129,129,0,0,1,822.57,202.54Z"/><path class="b90455bd-ff8d-44d8-9f3e-376389ba5843" d="M808.63,218.46c16.53,7,12.91-2.84,12.91-2.84s2.77-7.19-10.89-22.62a131,131,0,0,0-14.43-14.15C787.64,171.9,771.47,159,766,162.7c-5.35,4.58,4.07,21.44,12.22,30.78A129.15,129.15,0,0,0,808.63,218.46Z"/></g><g id="edb33e17-59e8-4997-b1f8-bf2a3268bc3f" data-name="Layer 12 copy 2"><path class="a8a41664-4665-45ff-851e-23e5716bf629" d="M1049.63,259.11v71.05s-.4,42.29-1.46,66.87c-4.49,52.38-21.93,84.56-75.32,86.68-25,1-57.38,2.93-83.75-.27-29.93-3.62-59.75-11.76-77.59-38.71-10,4.89-23.74,9.29-43.65,4-13.47-3.17-36.82-13.65-36.82-50.4,0-32.24,29.78-43.19,29.78-43.19L782.31,249.3l64-30.13,89.85-11.63,87.74,15.33Z"/><path class="ef978c53-25ef-4df5-bdac-24d0cb0f4f4b" d="M947.36,481.79c-26,.61-25.36,1.13-53-1.13C863.52,477,837.43,471,820,447.55c-2,1-3.72-12.88,8.32-10.28,16.45,17.79,28.24,21.57,50.86,28.13,36.42,10.56,100.65,10.16,112.18,10.3C997.68,476.79,959.93,481.49,947.36,481.79Z"/></g><g id="b535531d-6245-453a-a1f1-630c32000fca" data-name="Layer 15 copy 2"><path class="ef978c53-25ef-4df5-bdac-24d0cb0f4f4b" d="M810,278.37c-1.56,2.34,0,30.64,5.25,30.92,4.3-3.57,11.15-2.08,14.47-5.59,18.56-19.54,22.32-41.79,56.56-41.9,46.86-.14,121,24,140.77,22.38,19.29-6.87,22.61-32.77,22.61-32.77L939.17,194.06,826.85,215.2l-11.63,34.89Z"/></g><g id="b2de5f94-3068-41ba-83bc-dc2b5df2ee87" data-name="Layer 14 copy 2"><path class="e34e23ec-385a-47bf-8cee-f883e08d2073" d="M923.52,380.72c-5.65,1-22.71,1.08-40,.91-26.12.07-30.19-10.9-37-29.9-3.4-9.65-5.41-29.47-6.35-41.16-.6-10.21,11-9.23,14.55-9.21h78c8.88.95,17.28,2.31,16.34,11.77l-2.95,40.8S945.71,379.32,923.52,380.72Z"/><path class="a3b84c28-64aa-4997-8bf2-d80e76edb482" d="M923.52,383.1c-5.65,1-22.71,1.08-40,.91-26.12.06-30.19-10.9-37-29.9-3.4-9.65-5.41-29.47-6.35-41.17-.6-10.2,11-9.22,14.55-9.2h78c8.88.95,17.28,2.31,16.34,11.77l-2.95,40.8S945.71,381.7,923.52,383.1Z"/><path class="e61c9f6b-3e75-406b-92da-59abe5a76fff" d="M1001.31,380.72c5.65,1,22.71,1.08,40,.91,26.13.07,30.2-10.9,37-29.9,3.4-9.65,5.41-29.47,6.35-41.16.6-10.21-11-9.23-14.54-9.21h-78c-8.87.95-17.27,2.31-16.34,11.77l3,40.8S979.12,379.32,1001.31,380.72Z"/><path class="ba934752-c2c1-4ae1-8fc2-060c9a90d9ae" d="M1001.31,383.1c5.65,1,22.71,1.08,40,.91,26.13.06,30.2-10.9,37-29.9,3.4-9.65,5.41-29.47,6.35-41.17.6-10.2-11-9.22-14.54-9.2h-78c-8.87.95-17.27,2.31-16.34,11.77l3,40.8S979.12,381.7,1001.31,383.1Z"/><rect class="ff231365-0268-4386-b40c-db8e1fe56645" x="946.42" y="340.99" width="29.29" height="0.41"/><rect class="e84e588e-6d67-49b0-a021-b46ade80b6e5" x="1051.1" y="316.64" width="33.97" height="0.14" transform="matrix(0.93, -0.36, 0.36, 0.93, -42.34, 406.53)"/><rect class="adf4713a-a324-4516-b799-c1aeb1385952" x="804.21" y="315.73" width="35.33" height="0.14" transform="translate(-58.58 317.67) rotate(-21.14)"/></g><g id="b7e0cd09-6cd8-44fb-8860-57a81f5fb360" data-name="Layer 13 copy 2"><path class="a0756755-c476-4e75-bfb1-d1923acae92b" d="M952.12,419.52c2.61,12.57,9.3,12.86,18.12,12.46,9.19-.91,13.53-5.54,13.58-14.35"/><path class="aa57756d-6915-471e-9c0d-ede19cfce06a" d="M952.12,421.58c2.61,12.57,9.3,12.87,18.12,12.46,9.19-.91,13.53-5.54,13.58-14.35"/></g><g id="b06b3b49-5cff-4ec0-ac16-d0dd15e1cb78" data-name="real copy 2"><path class="b90455bd-ff8d-44d8-9f3e-376389ba5843" d="M1074.38,189.57a75.62,75.62,0,0,0-6.41-21.93c-3.74-6.85-7.69-12.69-9-14.89-1.63-2.8-2.65-4.11-3.54-5.79-6.36-10.06-6.29-1.67-9.1,6.14-2.28,6.46-11,13.92-27.26,13.21-12.49-.54-22.55-2.81-38.76-7.13-8.66-2.47-25.47-6.86-51.4-12.16-16.12-2.78-35.6-6-59.25-5.94-34.61-.74-47.17,15.88-52.41,35.14-1.52,5.59-2.31,16.51-3.88,24.19-1.63,4.65-10.68,2.18-15.24,1.32-9.31-1.78-29.31,1.05-42.06,12.55-22.9,21.14-21.27,57.7-21,72.9.36,8.57,3,24,7.05,36.29,5.48,16.71,13.94,31.34,17.79,35.77,10.57,13.21,30.31,4.22,37.18,10.21,3,1.94,11.8,13.92,15.68,21.67s8.63,6.52,16.21,3.88c6.9-2.41,5.51-8.87,4-15.47-3.4-15.23-9.69-24.53-15.86-35.5-6.34-12.34-6-21.4-5.64-35.24a113.29,113.29,0,0,1,3.88-24.67c2.72-9.2,6-15.6,11.45-22.37,4.23-4.23-.73,42.11-.53,38.94.39-8.69,10.94-30.59,22-45,12.73-16.28,25.55-16.8,42.6-17.07a141.27,141.27,0,0,1,33.52,4.14c50.63,12,73.23,20,75.26,20.43,1.16.28,16.79,3.52,30.36,2.12,12.52-1.29,20.81-6.34,23.12-8.06,18.24-12,20-30.52,21.71-41A136.39,136.39,0,0,0,1074.38,189.57Z"/></g><g id="fdab095f-f39c-4097-8939-da326f69c008" data-name="Layer 10 copy 2"><path class="afc14c47-8897-458a-8d04-322254feea39" d="M771.55,406.27l2.48,6.88s19.63-4.56,21.48-8.23-28-11.33-28-11.33H758a30.47,30.47,0,0,0,13.56,11.33"/><path d="M803.46,400.59,760,387.14a4.67,4.67,0,1,0-2.76,8.92l43.49,13.45a4.67,4.67,0,1,0,2.76-8.92Z"/><path d="M781,397.92a4.67,4.67,0,0,0-6.38,1.7l-9.25,16a4.67,4.67,0,0,0,8.09,4.67l9.25-16A4.66,4.66,0,0,0,781,397.92Z"/><path d="M902.69,335.58a11.53,11.53,0,1,0,11.53,11.53A11.53,11.53,0,0,0,902.69,335.58Z"/><circle cx="1016.55" cy="347.11" r="11.53"/><path d="M911.79,322.24H893.58a4,4,0,0,0,0,7.92h18.21a4,4,0,1,0,0-7.92Z"/><path class="bd4be147-2efd-4b4f-b31a-2db5aa701ffe" d="M911.79,324.22H893.58a4,4,0,0,0,0,7.92h18.21a4,4,0,1,0,0-7.92Z"/><path d="M1025.65,322.24h-18.21a4,4,0,0,0,0,7.92h18.21a4,4,0,1,0,0-7.92Z"/><path class="bd4be147-2efd-4b4f-b31a-2db5aa701ffe" d="M1025.65,324.22h-18.21a4,4,0,0,0,0,7.92h18.21a4,4,0,1,0,0-7.92Z"/><path d="M960.14,398.72a3.11,3.11,0,0,1,0-6.21c10.44,0,11-1.12,11-4.34s-.53-5-11-5a3.11,3.11,0,0,1,0-6.21c6,0,17.18,0,17.18,11.25C977.32,398.72,967.79,398.72,960.14,398.72Z"/><path class="abe8d9c7-adb4-40fd-8e3d-0569d8b649a8" d="M959.35,399.48a3.11,3.11,0,1,1,0-6.21c10.44,0,11-1.12,11-4.34s-.53-5-11-5a3.11,3.11,0,1,1,0-6.21c6,0,17.18,0,17.18,11.25C976.53,399.48,967,399.48,959.35,399.48Z"/><path d="M810,450.48a4.66,4.66,0,0,1-2.45-8.62l9.53-5.89c2.82-1.7,5-3,6.62-3.84l.17-.12-.12.1c3.91-2,5.27-1.69,7,1.08a4.72,4.72,0,0,1-1.81,6.65,4.47,4.47,0,0,1-.93.46l-6.08,3.62-9.48,5.86A4.62,4.62,0,0,1,810,450.48Z"/></g></g><g id="a1ace21f-eda9-4229-824e-7523d2af417e" data-name="keyframe_6 copy"><path class="b0cbe9cc-58d4-41da-9f1e-cc7f302351c7" d="M1120.64,42.89a9,9,0,0,1,6.39,2.64l11,11a9,9,0,0,1,0,12.77l-11,11a9,9,0,0,1-12.77,0l-11-11a9,9,0,0,1,0-12.77l11-11a9,9,0,0,1,6.38-2.64m0-3.76a12.69,12.69,0,0,0-9,3.74l-11,11a12.8,12.8,0,0,0,0,18.08l11,11a12.78,12.78,0,0,0,18.07,0l11-11a12.8,12.8,0,0,0,0-18.08l-11-11a12.7,12.7,0,0,0-9-3.74Z"/><path d="M1120.64,45.74a9,9,0,0,1,6.39,2.65l8.11,8.11a9,9,0,0,1,0,12.77L1127,77.38a9,9,0,0,1-12.77,0l-8.11-8.11a9,9,0,0,1,0-12.77l8.11-8.11a9,9,0,0,1,6.38-2.65m0-3.09a12.05,12.05,0,0,0-8.57,3.55L1104,54.31a12.13,12.13,0,0,0,0,17.15l8.11,8.11a12.13,12.13,0,0,0,17.15,0l8.11-8.11a12.13,12.13,0,0,0,0-17.15l-8.11-8.11a12.06,12.06,0,0,0-8.58-3.55Z"/><rect class="a5bb245f-a954-45c6-ba59-c7b2c65e804e" x="1105.88" y="48.12" width="29.53" height="29.53" rx="9.03" transform="translate(283.76 810.83) rotate(-45)"/><path class="b0cbe9cc-58d4-41da-9f1e-cc7f302351c7" d="M53.49,435.36A9,9,0,0,1,59.87,438l11,11a9,9,0,0,1,0,12.76l-11,11a9,9,0,0,1-12.76,0l-11-11a9,9,0,0,1,0-12.76l11-11a9,9,0,0,1,6.38-2.65m0-3.76a12.7,12.7,0,0,0-9,3.75l-11,11a12.81,12.81,0,0,0,0,18.08l11,11a12.77,12.77,0,0,0,18.08,0l11-11a12.79,12.79,0,0,0,0-18.08l-11-11a12.67,12.67,0,0,0-9-3.75Z"/><path d="M53.49,438.22a9,9,0,0,1,6.38,2.64L68,449a9,9,0,0,1,0,12.76l-8.12,8.12a9,9,0,0,1-12.76,0L39,461.74A9,9,0,0,1,39,449l8.12-8.12a9,9,0,0,1,6.38-2.64m0-3.1a12,12,0,0,0-8.57,3.55l-8.11,8.12a12.13,12.13,0,0,0,0,17.14l8.11,8.12a12.12,12.12,0,0,0,17.14,0l8.12-8.12a12.14,12.14,0,0,0,0-17.14l-8.12-8.12a12,12,0,0,0-8.57-3.55Z"/><rect class="a5bb245f-a954-45c6-ba59-c7b2c65e804e" x="38.73" y="440.6" width="29.53" height="29.53" rx="9.03" transform="translate(-306.32 171.2) rotate(-45)"/></g><g id="b727dc32-6f5d-4eaa-a735-ccc87a6ed1be" data-name="keyframe_3 copy"><path class="b0cbe9cc-58d4-41da-9f1e-cc7f302351c7" d="M91.56,68.07a2.72,2.72,0,0,1,.69.09L119.37,75a2.81,2.81,0,0,1,1.46.92,2.74,2.74,0,0,1-.74,4l-12.83,8.32a2.8,2.8,0,0,0-.93,3.68l7.31,13.44a2.75,2.75,0,0,1-1.25,3.86,2.94,2.94,0,0,1-1,.19,2.76,2.76,0,0,1-.69-.08l-27.12-6.88a2.78,2.78,0,0,1-2-2.13,2.7,2.7,0,0,1,1.22-2.74l12.72-8.44a2.8,2.8,0,0,0,.93-3.64L89.21,72.05a2.69,2.69,0,0,1,.24-3,2.74,2.74,0,0,1,2.11-1m0-5.19h0a8,8,0,0,0-6.08,2.83,7.83,7.83,0,0,0-.85,8.77L90.77,86l-10.9,7.24a7.82,7.82,0,0,0-3.44,8.12,7.91,7.91,0,0,0,5.85,6.1l27.11,6.88a8.23,8.23,0,0,0,2,.24,8,8,0,0,0,3-.57,7.76,7.76,0,0,0,4.38-4.58,8.07,8.07,0,0,0-.51-6.57L112,91.41l11-7.12a8.1,8.1,0,0,0,3.58-5.54,7.8,7.8,0,0,0-1.67-6.11A7.91,7.91,0,0,0,120.65,70L93.53,63.13a7.77,7.77,0,0,0-2-.25Z"/><path class="a5bb245f-a954-45c6-ba59-c7b2c65e804e" d="M111.36,110.77a4.46,4.46,0,0,1-1-.13l-27.12-6.88a4.09,4.09,0,0,1-3-3.15A4,4,0,0,1,82,96.49l12.72-8.44a1.45,1.45,0,0,0,.48-1.9L88,72.67a4,4,0,0,1,.39-4.47,4.08,4.08,0,0,1,3.13-1.47,4.46,4.46,0,0,1,1,.13l27.12,6.88a4.09,4.09,0,0,1,2.15,1.36,3.79,3.79,0,0,1,.83,3.07,4.22,4.22,0,0,1-1.86,2.89L108,89.38a1.47,1.47,0,0,0-.49,1.93l7.31,13.43a4.24,4.24,0,0,1,.27,3.43,3.85,3.85,0,0,1-2.2,2.3A4,4,0,0,1,111.36,110.77Z"/><path d="M91.56,68.07a2.72,2.72,0,0,1,.69.09L119.37,75a2.81,2.81,0,0,1,1.46.92,2.74,2.74,0,0,1-.74,4l-12.83,8.32a2.8,2.8,0,0,0-.93,3.68l7.31,13.44a2.74,2.74,0,0,1-1.26,3.86,2.85,2.85,0,0,1-1,.19,2.71,2.71,0,0,1-.69-.08l-27.12-6.88a2.78,2.78,0,0,1-2-2.13,2.7,2.7,0,0,1,1.22-2.74l12.72-8.44a2.8,2.8,0,0,0,.93-3.64L89.21,72.05a2.69,2.69,0,0,1,.23-3,2.78,2.78,0,0,1,2.12-1m0-2.67h0a5.45,5.45,0,0,0-4.15,1.93,5.39,5.39,0,0,0-.55,6L94,86.78a.13.13,0,0,1,0,.16L81.26,95.38a5.33,5.33,0,0,0,1.64,9.67L110,111.93a5.67,5.67,0,0,0,1.35.17,5.34,5.34,0,0,0,2-.39,5.23,5.23,0,0,0,3-3.09,5.54,5.54,0,0,0-.35-4.52l-7.31-13.43a.14.14,0,0,1,0-.17l12.83-8.32A5.54,5.54,0,0,0,124,78.37a5.21,5.21,0,0,0-1.12-4.12,5.37,5.37,0,0,0-2.85-1.8L92.91,65.57a5.61,5.61,0,0,0-1.35-.17Z"/><path class="b0cbe9cc-58d4-41da-9f1e-cc7f302351c7" d="M567.91,546.36a2.75,2.75,0,0,1,1.41.4l24,14.31a2.67,2.67,0,0,1-.71,4.91L578,570.31a2.8,2.8,0,0,0-2,3.26l3.19,15a2.75,2.75,0,0,1-2.3,3.34h-.26a2.74,2.74,0,0,1-1.42-.39l-24-14.32a2.78,2.78,0,0,1-1.35-2.62,2.71,2.71,0,0,1,1.95-2.28l14.6-4.46a2.8,2.8,0,0,0,1.92-3.23l-3-15a2.72,2.72,0,0,1,1.07-2.8,2.89,2.89,0,0,1,1.54-.46m0-5.19h0a8,8,0,0,0-4.38,1.31,7.82,7.82,0,0,0-3.31,8.17l2.59,12.83-12.51,3.83a7.83,7.83,0,0,0-5.61,6.81,7.93,7.93,0,0,0,3.87,7.51l24,14.31a8,8,0,0,0,4.08,1.13,6.28,6.28,0,0,0,.75,0,7.74,7.74,0,0,0,5.5-3.14,8,8,0,0,0,1.38-6.44l-2.72-12.79,12.54-3.7a8.07,8.07,0,0,0,5-4.29,7.75,7.75,0,0,0,.14-6.34,7.9,7.9,0,0,0-3.25-3.72L572,542.3a7.93,7.93,0,0,0-4.07-1.13Z"/><path class="a5bb245f-a954-45c6-ba59-c7b2c65e804e" d="M576.67,593.21a4.1,4.1,0,0,1-2.1-.58l-24-14.31a4.08,4.08,0,0,1-2-3.88,4,4,0,0,1,2.88-3.44l14.6-4.47a1.45,1.45,0,0,0,1-1.69l-3-15a4,4,0,0,1,3.92-4.86,4.13,4.13,0,0,1,2.1.58l24,14.31a4.12,4.12,0,0,1,1.68,1.92,3.8,3.8,0,0,1-.08,3.18,4.21,4.21,0,0,1-2.61,2.24l-14.67,4.32a1.48,1.48,0,0,0-1,1.71l3.18,15a4.2,4.2,0,0,1-.72,3.36,3.8,3.8,0,0,1-2.76,1.58A2.48,2.48,0,0,1,576.67,593.21Z"/><path d="M567.91,546.36a2.75,2.75,0,0,1,1.41.4l24,14.31a2.67,2.67,0,0,1-.71,4.91L578,570.31a2.8,2.8,0,0,0-2,3.26l3.19,14.95a2.75,2.75,0,0,1-2.3,3.35h-.26a2.74,2.74,0,0,1-1.42-.39l-24-14.32a2.78,2.78,0,0,1-1.35-2.62,2.71,2.71,0,0,1,1.95-2.28l14.6-4.46a2.8,2.8,0,0,0,1.92-3.23l-3-15a2.71,2.71,0,0,1,1.07-2.8,2.89,2.89,0,0,1,1.54-.46m0-2.66h0a5.51,5.51,0,0,0-3,.89,5.38,5.38,0,0,0-2.22,5.56l3,15a.14.14,0,0,1-.09.15L551,569.72a5.33,5.33,0,0,0-1.18,9.74l24,14.32a5.5,5.5,0,0,0,2.79.77l.51,0a5.23,5.23,0,0,0,3.7-2.12,5.56,5.56,0,0,0,1-4.43l-3.19-15a.14.14,0,0,1,.09-.15l14.67-4.32a5.58,5.58,0,0,0,3.44-2.95,5.22,5.22,0,0,0,.1-4.27,5.3,5.3,0,0,0-2.23-2.54l-24-14.31a5.4,5.4,0,0,0-2.78-.77Z"/></g><g id="ea61fc0e-0198-456f-9cf5-792b34e4973e" data-name="keyframe_1 copy"><path class="b0cbe9cc-58d4-41da-9f1e-cc7f302351c7" d="M554.17,62.88c2.9,0,13.24,2.62,18.87,3.6a4.36,4.36,0,0,1,3.61,3.9c.62,6.41,2.86,19,2,19.79l-11.38,10.55a2.86,2.86,0,0,1-1.76.77h-.19a2.89,2.89,0,0,1-2.79-2.91l-.17-15.85a2.94,2.94,0,0,0-2.7-2.91l-15.79-1.37a2.81,2.81,0,0,1-1.77-4.89L553.45,63a1.23,1.23,0,0,1,.72-.14m0-3.87h0a4.82,4.82,0,0,0-3.36,1.17L539.43,70.73a6.78,6.78,0,0,0-2.1,4,6.54,6.54,0,0,0,1.36,5,6.89,6.89,0,0,0,4.8,2.58l15,1.3.16,15a6.76,6.76,0,0,0,6.67,6.74h.45a6.83,6.83,0,0,0,4.14-1.79L581.25,93c2-1.87,1.78-4,.24-15.25-.38-2.79-.78-5.67-1-7.76a8.27,8.27,0,0,0-6.81-7.35c-2.07-.36-4.91-1-7.66-1.57C560,59.8,556.23,59,554.17,59Z"/><path class="e79940a4-cf94-468b-a219-22049ab6a7f2" d="M578.61,90.17l-11.38,10.55a2.81,2.81,0,0,1-4.74-2.13l-.17-15.85a2.94,2.94,0,0,0-2.7-2.91l-15.79-1.37a2.81,2.81,0,0,1-1.77-4.89L553.45,63c.9-.83,13.24,2.36,19.59,3.46a4.36,4.36,0,0,1,3.61,3.9C577.27,76.79,579.51,89.34,578.61,90.17Z"/><path class="b0cbe9cc-58d4-41da-9f1e-cc7f302351c7" d="M1055.71,480.15a2.84,2.84,0,0,1,1.44.39l13.48,7.69c1.06.61,1.72,13.34,2.58,19.73a4.39,4.39,0,0,1-2.64,4.62c-5.65,2.39-16.15,7.85-18.07,7.85a.46.46,0,0,1-.23,0l-13.47-7.69a2.8,2.8,0,0,1,.6-5.16l15.08-4.92a3,3,0,0,0,2-3.44L1053,483.69a2.88,2.88,0,0,1,2.25-3.5,2.28,2.28,0,0,1,.45,0m0-3.87a6.48,6.48,0,0,0-5.45,2.89,6.91,6.91,0,0,0-1,5.36l3.25,14.66-14.28,4.65a6.94,6.94,0,0,0-4.09,3.61,6.54,6.54,0,0,0-.19,5.2,6.87,6.87,0,0,0,2.95,3.41l13.48,7.69a4.25,4.25,0,0,0,2.15.55c1.84,0,4.32-1,12.47-4.89,2.55-1.2,5.18-2.45,7.11-3.26a8.29,8.29,0,0,0,5-8.71c-.28-2.08-.55-5-.81-7.78-1-11.27-1.31-13.43-3.69-14.79l-13.48-7.7a6.83,6.83,0,0,0-3.36-.89Z"/><path class="e79940a4-cf94-468b-a219-22049ab6a7f2" d="M1052.27,520.38l-13.48-7.69a2.81,2.81,0,0,1,.61-5.16l15.08-4.92a3,3,0,0,0,2-3.44L1053,483.69a2.81,2.81,0,0,1,4.14-3.15l13.48,7.69c1.06.61,1.72,13.34,2.58,19.73a4.39,4.39,0,0,1-2.64,4.62C1064.64,515.09,1053.34,521,1052.27,520.38Z"/></g></g></svg>