<svg xmlns="http://www.w3.org/2000/svg" viewBox="0 0 364.96 594.21"><defs><style>.f6b46ed2-0391-4778-8787-0f909e7bce6b{fill:#3a343b;stroke-width:6px;}.a083a334-bb63-4bf7-aed8-5dbea744c0a9,.a45101de-977c-4b13-a658-a15cb0ce5d33,.a7ce4cee-5bf8-4f16-a53d-f9785ebc8656,.a86a4215-dc45-4b6e-ab13-f5341d33f248,.a9f3c513-eee0-4674-aff0-a30beff44c53,.ab51d163-aa03-4086-bbb7-16239bb8beba,.ae02465a-1cd0-4b70-9144-c27ed2ca37fe,.b902ce57-9fdf-4937-bf0e-5f3f5af4b1c2,.bca63a64-d87a-4e01-b5ff-a7cfc0308d51,.bf4ca252-7592-4e97-84e4-77f0e773e46a,.e2e766e0-9ec6-4746-9f97-a9a66d20e372,.e802c13f-e2ad-4cf8-a0f7-c193b325a939,.edc3f10c-8ebb-4155-84bf-45705ad009a7,.eed1e2b2-ec11-4ab7-9fa8-2858376f5351,.f6b46ed2-0391-4778-8787-0f909e7bce6b,.f8b81e42-e0e4-45b6-973b-dcea475a282b,.fea5542f-2590-44b7-8540-b09ad5095aac{stroke:#000;}.a083a334-bb63-4bf7-aed8-5dbea744c0a9,.a86a4215-dc45-4b6e-ab13-f5341d33f248,.f6b46ed2-0391-4778-8787-0f909e7bce6b,.f8b81e42-e0e4-45b6-973b-dcea475a282b{stroke-miterlimit:10;}.a86a4215-dc45-4b6e-ab13-f5341d33f248,.b09b2b43-583b-4941-9cd0-7da4e463f614{fill:#fff;}.a7ce4cee-5bf8-4f16-a53d-f9785ebc8656,.bca63a64-d87a-4e01-b5ff-a7cfc0308d51,.fea5542f-2590-44b7-8540-b09ad5095aac{fill:#fdc6ab;}.a45101de-977c-4b13-a658-a15cb0ce5d33,.a7ce4cee-5bf8-4f16-a53d-f9785ebc8656,.a9f3c513-eee0-4674-aff0-a30beff44c53,.ab51d163-aa03-4086-bbb7-16239bb8beba,.ae02465a-1cd0-4b70-9144-c27ed2ca37fe,.b902ce57-9fdf-4937-bf0e-5f3f5af4b1c2,.bca63a64-d87a-4e01-b5ff-a7cfc0308d51,.bf4ca252-7592-4e97-84e4-77f0e773e46a,.e2e766e0-9ec6-4746-9f97-a9a66d20e372,.e802c13f-e2ad-4cf8-a0f7-c193b325a939,.edc3f10c-8ebb-4155-84bf-45705ad009a7,.eed1e2b2-ec11-4ab7-9fa8-2858376f5351,.fea5542f-2590-44b7-8540-b09ad5095aac{stroke-linecap:round;stroke-linejoin:round;}.bca63a64-d87a-4e01-b5ff-a7cfc0308d51{stroke-width:4.97px;}.a083a334-bb63-4bf7-aed8-5dbea744c0a9,.f8b81e42-e0e4-45b6-973b-dcea475a282b{fill:#3a6b98;}.f8b81e42-e0e4-45b6-973b-dcea475a282b{stroke-width:5.59px;}.a083a334-bb63-4bf7-aed8-5dbea744c0a9,.a86a4215-dc45-4b6e-ab13-f5341d33f248{stroke-width:6.19px;}.a7ce4cee-5bf8-4f16-a53d-f9785ebc8656{stroke-width:4.82px;}.b4602052-b84f-4f71-beea-28ae4d14eb24{fill:#352c28;}.e802c13f-e2ad-4cf8-a0f7-c193b325a939{fill:#bc4f04;}.e802c13f-e2ad-4cf8-a0f7-c193b325a939,.fea5542f-2590-44b7-8540-b09ad5095aac{stroke-width:4.67px;}.f4c82d84-da0b-4bb0-88e5-f8731312b423{fill:#f8a48e;}.a45101de-977c-4b13-a658-a15cb0ce5d33,.a9f3c513-eee0-4674-aff0-a30beff44c53,.ab51d163-aa03-4086-bbb7-16239bb8beba,.ae02465a-1cd0-4b70-9144-c27ed2ca37fe,.b902ce57-9fdf-4937-bf0e-5f3f5af4b1c2,.bf4ca252-7592-4e97-84e4-77f0e773e46a,.e2e766e0-9ec6-4746-9f97-a9a66d20e372,.edc3f10c-8ebb-4155-84bf-45705ad009a7,.eed1e2b2-ec11-4ab7-9fa8-2858376f5351{fill:none;}.a9f3c513-eee0-4674-aff0-a30beff44c53,.eed1e2b2-ec11-4ab7-9fa8-2858376f5351{stroke-width:5.89px;}.b902ce57-9fdf-4937-bf0e-5f3f5af4b1c2,.eed1e2b2-ec11-4ab7-9fa8-2858376f5351{opacity:0.16;}.b902ce57-9fdf-4937-bf0e-5f3f5af4b1c2,.edc3f10c-8ebb-4155-84bf-45705ad009a7{stroke-width:5.89px;}.a45101de-977c-4b13-a658-a15cb0ce5d33{stroke-width:4.72px;}.bf4ca252-7592-4e97-84e4-77f0e773e46a{stroke-width:6.87px;}.ab51d163-aa03-4086-bbb7-16239bb8beba{stroke-width:7px;}.ae02465a-1cd0-4b70-9144-c27ed2ca37fe,.e2e766e0-9ec6-4746-9f97-a9a66d20e372{stroke-width:3.63px;}.a84bb997-8671-407b-9487-f7da7b3d57da,.e2e766e0-9ec6-4746-9f97-a9a66d20e372{opacity:0.17;}.a4c22c27-e259-41f7-8e1c-fef17823ed2e{fill:#e5ab8e;}.f894e52a-9575-4236-aac3-c66be05b0637{opacity:0.13;}</style></defs><g id="ebae0326-6eb8-4db6-9c91-cbc3b2890898" data-name="Layer 1"><path class="f6b46ed2-0391-4778-8787-0f909e7bce6b" d="M1086,723.55l-63,63-31.78-31.78,37.4-37.4c10.23-10.23,45.25-6,51.27,0Z" transform="translate(-725.23 -216.9)"/><rect class="b09b2b43-583b-4941-9cd0-7da4e463f614" x="1008.99" y="748.35" width="84.47" height="7.02" transform="translate(-948.98 746.64) rotate(-45)"/><rect class="bca63a64-d87a-4e01-b5ff-a7cfc0308d51" x="958.86" y="410.73" width="53.87" height="197.07" rx="26.93" transform="translate(-796.6 629.32) rotate(-45)"/><rect class="f8b81e42-e0e4-45b6-973b-dcea475a282b" x="855.97" y="559.97" width="58.87" height="187.76" transform="translate(-279.68 -572.01) rotate(30)"/><rect x="808.32" y="554.68" width="58.87" height="21.11" transform="translate(-879.53 541.03) rotate(-45)"/><rect x="909.89" y="558.98" width="58.87" height="21.11" transform="translate(-314.62 -610.26) rotate(30)"/><path class="f6b46ed2-0391-4778-8787-0f909e7bce6b" d="M864.9,807l-77.2-44.58,22.46-38.91L856,750c12.53,7.24,17.52,42.16,13.27,49.53Z" transform="translate(-725.23 -216.9)"/><rect class="b09b2b43-583b-4941-9cd0-7da4e463f614" x="786.95" y="777.29" width="83.23" height="7.02" transform="translate(-223.82 -526.58) rotate(30)"/><rect class="a083a334-bb63-4bf7-aed8-5dbea744c0a9" x="900.61" y="537.93" width="58.87" height="230.28" transform="translate(-914.62 632.02) rotate(-45)"/><path class="a86a4215-dc45-4b6e-ab13-f5341d33f248" d="M934,414.2h0a36.15,36.15,0,0,1,36.15,36.15V509a0,0,0,0,1,0,0H901.49a0,0,0,0,1,0,0V446.66A32.47,32.47,0,0,1,934,414.2Z" transform="translate(-777.54 580) rotate(-45)"/><path class="a86a4215-dc45-4b6e-ab13-f5341d33f248" d="M155.69,168.81h1.06a93.51,93.51,0,0,1,93.51,93.51v97.22a0,0,0,0,1,0,0H62.18a0,0,0,0,1,0,0V262.31a93.51,93.51,0,0,1,93.51-93.51Z"/><rect class="a7ce4cee-5bf8-4f16-a53d-f9785ebc8656" x="760.51" y="437.31" width="53.87" height="185.34" rx="26.93" transform="translate(-354.74 -539.62) rotate(30)"/><path class="a86a4215-dc45-4b6e-ab13-f5341d33f248" d="M816.42,429.21h0a36.15,36.15,0,0,1,36.15,36.15V524a0,0,0,0,1,0,0H784a0,0,0,0,1,0,0V461.68a32.47,32.47,0,0,1,32.47-32.47Z" transform="translate(-377.3 -562.18) rotate(30)"/></g><g id="a34e9e4e-2471-437f-b93d-c3880bb59f94" data-name="Layer 27"><path class="b4602052-b84f-4f71-beea-28ae4d14eb24" d="M838.58,385l81.1,7.45a84.14,84.14,0,0,1-31,11c-10.22,2.13-24,1.17-28.21,0C843.47,402.49,838.58,385,838.58,385Z" transform="translate(-725.23 -216.9)"/></g><g id="aea506b9-29e3-49c4-a07c-12bfadcc5f61" data-name="Head"><g id="ae075a72-b15f-41c6-ba60-7dcc1d11e756" data-name="Layer 11"><path class="e802c13f-e2ad-4cf8-a0f7-c193b325a939" d="M829.75,253.07c-2.1,8.75-5,4.37-5,4.37s-3.72-1-5.88-11.12a65.24,65.24,0,0,1-1.41-10c-.25-5.52-.65-15.89,2.47-17,3.44-.8,7.44,8,8.78,14.08A64.74,64.74,0,0,1,829.75,253.07Z" transform="translate(-725.23 -216.9)"/><path class="e802c13f-e2ad-4cf8-a0f7-c193b325a939" d="M822.76,261.05c8.29,3.5,6.47-1.42,6.47-1.42s1.39-3.61-5.45-11.34a65.39,65.39,0,0,0-7.24-7.09c-4.29-3.49-12.4-10-15.14-8.1-2.68,2.3,2,10.74,6.13,15.43A64.72,64.72,0,0,0,822.76,261.05Z" transform="translate(-725.23 -216.9)"/></g><g id="a20b1239-e921-4a13-b9dd-f6bf971c062d" data-name="Layer 12"><path class="fea5542f-2590-44b7-8540-b09ad5095aac" d="M943.57,281.43V317s-.21,21.2-.74,33.51c-2.25,26.26-11,42.39-37.75,43.45-12.53.5-28.76,1.47-42-.13-15-1.82-30-5.89-38.89-19.41-5,2.46-11.9,4.66-21.88,2-6.76-1.59-18.46-6.84-18.46-25.26,0-16.16,14.93-21.65,14.93-21.65l10.77-53.05,32.06-15.11,45-5.82,44,7.68Z" transform="translate(-725.23 -216.9)"/><path class="f4c82d84-da0b-4bb0-88e5-f8731312b423" d="M892.3,393c-13,.31-12.71.57-26.57-.56-15.45-1.84-28.53-4.86-37.27-16.6-1,.48-1.87-6.46,4.16-5.15,8.25,8.91,14.16,10.81,25.5,14.1,18.25,5.29,50.45,5.09,56.23,5.16C917.52,390.54,898.6,392.89,892.3,393Z" transform="translate(-725.23 -216.9)"/></g><g id="f784dcce-bacd-4e00-911e-a6d33b23e1c0" data-name="Layer 15"><path class="f4c82d84-da0b-4bb0-88e5-f8731312b423" d="M823.43,291.08c-.77,1.17,0,15.36,2.64,15.5,2.15-1.79,5.59-1.05,7.25-2.8,9.3-9.8,11.19-20.95,28.35-21,23.49-.08,60.63,12,70.56,11.21,9.67-3.44,11.34-16.42,11.34-16.42l-55.38-28.75-56.29,10.6-5.83,17.48Z" transform="translate(-725.23 -216.9)"/></g><g id="bc6a9346-5121-4662-9b88-fc4910701317" data-name="Layer 14"><path class="a9f3c513-eee0-4674-aff0-a30beff44c53" d="M880.35,342.38c-2.83.49-11.38.55-20,.46-13.09,0-15.13-5.47-18.53-15-1.71-4.84-2.72-14.77-3.19-20.63-.3-5.12,5.5-4.62,7.29-4.62H885c4.45.48,8.66,1.16,8.19,5.9L891.68,329S891.48,341.68,880.35,342.38Z" transform="translate(-725.23 -216.9)"/><path class="eed1e2b2-ec11-4ab7-9fa8-2858376f5351" d="M880.35,343.57c-2.83.49-11.38.55-20,.46-13.09,0-15.13-5.46-18.53-15-1.71-4.83-2.72-14.77-3.19-20.63-.3-5.12,5.5-4.62,7.29-4.62H885c4.45.48,8.66,1.16,8.19,5.91l-1.47,20.45S891.48,342.87,880.35,343.57Z" transform="translate(-725.23 -216.9)"/><path class="edc3f10c-8ebb-4155-84bf-45705ad009a7" d="M919.34,342.38c2.84.49,11.39.55,20,.46,13.09,0,15.13-5.47,18.53-15,1.7-4.84,2.71-14.77,3.18-20.63.3-5.12-5.49-4.62-7.29-4.62H914.73c-4.44.48-8.66,1.16-8.19,5.9L908,329S908.22,341.68,919.34,342.38Z" transform="translate(-725.23 -216.9)"/><path class="b902ce57-9fdf-4937-bf0e-5f3f5af4b1c2" d="M919.34,343.57c2.84.49,11.39.55,20,.46,13.09,0,15.13-5.46,18.53-15,1.7-4.83,2.71-14.77,3.18-20.63.3-5.12-5.49-4.62-7.29-4.62H914.73c-4.44.48-8.66,1.16-8.19,5.91L908,330.15S908.22,342.87,919.34,343.57Z" transform="translate(-725.23 -216.9)"/><rect class="a45101de-977c-4b13-a658-a15cb0ce5d33" x="166.6" y="105.57" width="14.68" height="0.21"/><rect class="bf4ca252-7592-4e97-84e4-77f0e773e46a" x="944.3" y="310.26" width="17.03" height="0.07" transform="translate(-773.01 147.62) rotate(-21.14)"/><rect class="ab51d163-aa03-4086-bbb7-16239bb8beba" x="820.55" y="309.8" width="17.71" height="0.07" transform="translate(-781.16 103.08) rotate(-21.14)"/></g><g id="b749a986-6321-4bab-80f3-d1662b84febd" data-name="Layer 13"><path class="ae02465a-1cd0-4b70-9144-c27ed2ca37fe" d="M894.69,361.83c1.31,6.3,4.66,6.45,9.08,6.24,4.61-.45,6.78-2.77,6.81-7.19" transform="translate(-725.23 -216.9)"/><path class="e2e766e0-9ec6-4746-9f97-a9a66d20e372" d="M894.69,362.86c1.31,6.3,4.66,6.45,9.08,6.25,4.61-.46,6.78-2.78,6.81-7.19" transform="translate(-725.23 -216.9)"/></g><g id="ff322ba9-5613-4995-9c34-e5134cb9736d" data-name="real"><path class="e802c13f-e2ad-4cf8-a0f7-c193b325a939" d="M956,246.57a37.91,37.91,0,0,0-3.21-11c-1.88-3.42-3.86-6.35-4.52-7.46-.81-1.4-1.33-2.06-1.78-2.9-3.18-5-3.15-.84-4.55,3.08-1.15,3.24-5.55,7-13.67,6.62-6.26-.27-11.3-1.41-19.43-3.57-4.34-1.24-12.76-3.44-25.76-6.1a167.74,167.74,0,0,0-29.7-3c-17.35-.37-23.64,8-26.27,17.62-.76,2.8-1.16,8.27-1.94,12.12-.82,2.33-5.36,1.1-7.64.66-4.67-.89-14.69.53-21.09,6.29-11.48,10.6-10.66,28.93-10.53,36.54a78.11,78.11,0,0,0,3.54,18.2c2.74,8.37,7,15.7,8.91,17.92,5.3,6.63,15.19,2.12,18.64,5.12,1.5,1,5.91,7,7.86,10.87s4.32,3.26,8.12,1.94c3.46-1.21,2.77-4.44,2-7.76-1.7-7.63-4.86-12.29-8-17.79-3.18-6.18-3-10.72-2.83-17.66A56.43,56.43,0,0,1,826.14,294a29.94,29.94,0,0,1,5.74-11.21c2.12-2.12-.37,21.1-.27,19.51.19-4.35,5.48-15.33,11-22.57,6.38-8.16,12.81-8.42,21.35-8.56a71,71,0,0,1,16.8,2.08c25.38,6,36.71,10,37.72,10.24a55.85,55.85,0,0,0,15.22,1.06,24.7,24.7,0,0,0,11.59-4c9.14-6,10-15.3,10.89-20.53A69.48,69.48,0,0,0,956,246.57Z" transform="translate(-725.23 -216.9)"/></g><g id="ab28f98f-29e5-4ba1-8194-22c11a9c3d84" data-name="Layer 10"><path class="a4c22c27-e259-41f7-8e1c-fef17823ed2e" d="M804.18,355.19l1.24,3.44s9.84-2.28,10.77-4.12-14-5.68-14-5.68h-4.77a15.23,15.23,0,0,0,6.8,5.68" transform="translate(-725.23 -216.9)"/><path d="M820.17,352.34l-21.8-6.74a2.34,2.34,0,0,0-1.38,4.47l21.8,6.74a2.34,2.34,0,0,0,1.38-4.47Z" transform="translate(-725.23 -216.9)"/><path d="M808.91,351a2.34,2.34,0,0,0-3.2.86l-4.63,8a2.34,2.34,0,0,0,4,2.34l4.64-8A2.35,2.35,0,0,0,808.91,351Z" transform="translate(-725.23 -216.9)"/><path d="M869.91,319.76a5.78,5.78,0,1,0,5.78,5.78A5.78,5.78,0,0,0,869.91,319.76Z" transform="translate(-725.23 -216.9)"/><circle cx="201.75" cy="108.63" r="5.78"/><path d="M874.47,313.07h-9.13a2,2,0,0,0,0,4h9.13a2,2,0,1,0,0-4Z" transform="translate(-725.23 -216.9)"/><path class="a84bb997-8671-407b-9487-f7da7b3d57da" d="M874.47,314.06h-9.13a2,2,0,0,0,0,4h9.13a2,2,0,1,0,0-4Z" transform="translate(-725.23 -216.9)"/><path d="M931.55,313.07h-9.13a2,2,0,1,0,0,4h9.13a2,2,0,0,0,0-4Z" transform="translate(-725.23 -216.9)"/><path class="a84bb997-8671-407b-9487-f7da7b3d57da" d="M931.55,314.06h-9.13a2,2,0,1,0,0,4h9.13a2,2,0,0,0,0-4Z" transform="translate(-725.23 -216.9)"/><path d="M898.71,351.4a1.56,1.56,0,1,1,0-3.11c5.23,0,5.5-.56,5.5-2.18s-.27-2.52-5.5-2.52a1.56,1.56,0,1,1,0-3.11c3,0,8.61,0,8.61,5.63C907.32,351.4,902.54,351.4,898.71,351.4Z" transform="translate(-725.23 -216.9)"/><path class="f894e52a-9575-4236-aac3-c66be05b0637" d="M898.31,351.78a1.56,1.56,0,0,1,0-3.11c5.23,0,5.5-.56,5.5-2.18s-.27-2.52-5.5-2.52a1.56,1.56,0,0,1,0-3.11c3,0,8.61,0,8.61,5.63C906.92,351.78,902.15,351.78,898.31,351.78Z" transform="translate(-725.23 -216.9)"/><path d="M823.44,377.35a2.33,2.33,0,0,1-1.23-4.32l4.77-2.95c1.42-.85,2.49-1.5,3.32-1.93l.09-.06-.06.05c2-1,2.64-.85,3.5.54a2.37,2.37,0,0,1-.91,3.34,2.82,2.82,0,0,1-.46.23l-3.05,1.81L824.66,377A2.38,2.38,0,0,1,823.44,377.35Z" transform="translate(-725.23 -216.9)"/></g></g></svg>